# xmcd
#
# Track frame offsets:
#	150
#	15987
#	36667
#	57739
#	76895
#	94717
#	107115
#	118147
#	133657
#	158737
#	175215
#
# Disc length: 2546 seconds
#
# Revision: 1
# Processed by: cddbd v1.5.1PL2 Copyright (c) Steve Scherf et al.
# Submitted via: audiograbber 1.83.01
#
DISCID=9009f00b
DTITLE=Roland Allen - Long Time Comin'
DYEAR=1900
DGENRE=Blues
TTITLE0=Gelon
TTITLE1=1990s Blues
TTITLE2=Ju Ju Man
TTITLE3=Standin'
TTITLE4=High Steppin'
TTITLE5=Rosanne
TTITLE6=Get Back
TTITLE7=First Rays
TTITLE8=I Ain't The One
TTITLE9=Second Light
TTITLE10=Lakewood Moon
EXTD=
EXTT0=
EXTT1=
EXTT2=
EXTT3=
EXTT4=
EXTT5=
EXTT6=
EXTT7=
EXTT8=
EXTT9=
EXTT10=
PLAYORDER=
